<svg width="20" height="20" viewBox="0 0 20 20" fill="none" xmlns="http://www.w3.org/2000/svg">
<path d="M5.24302 20C4.55462 20.0011 3.87278 19.8663 3.23663 19.6032C2.60048 19.3401 2.02255 18.954 1.53602 18.467C1.04768 17.9811 0.660504 17.4032 0.39686 16.7667C0.133216 16.1303 -0.00166438 15.4479 1.55005e-05 14.759C1.55005e-05 13.357 0.546016 12.04 1.53602 11.051L11.051 1.53199C11.6614 0.92355 12.4122 0.474731 13.2371 0.22515C14.062 -0.0244313 14.9356 -0.0670998 15.7809 0.100911C16.6262 0.268922 17.4171 0.642446 18.0839 1.18851C18.7506 1.73457 19.2727 2.43638 19.604 3.23199C19.8675 3.86855 20.0021 4.55105 20 5.23999C20.0021 5.92885 19.8675 6.61129 19.604 7.24778C19.3405 7.88427 18.9534 8.46216 18.465 8.94799L14.207 13.208C13.8438 13.5706 13.3969 13.8381 12.9057 13.9869C12.4145 14.1358 11.8943 14.1613 11.3909 14.0612C10.8875 13.9612 10.4165 13.7387 10.0196 13.4133C9.62264 13.088 9.31196 12.6699 9.11502 12.196C8.95791 11.8169 8.87769 11.4103 8.87901 11C8.87901 10.165 9.20302 9.38099 9.79302 8.79199L14.293 4.29099C14.3853 4.19548 14.4956 4.1193 14.6176 4.06689C14.7396 4.01448 14.8708 3.98689 15.0036 3.98574C15.1364 3.98458 15.2681 4.00988 15.391 4.06017C15.5139 4.11045 15.6255 4.1847 15.7194 4.27859C15.8133 4.37248 15.8876 4.48414 15.9378 4.60703C15.9881 4.72993 16.0134 4.86161 16.0123 4.99439C16.0111 5.12717 15.9835 5.25839 15.9311 5.38039C15.8787 5.5024 15.8025 5.61274 15.707 5.70499L11.207 10.206C11.1024 10.31 11.0196 10.4337 10.9632 10.57C10.9069 10.7063 10.8783 10.8525 10.879 11C10.8782 11.1474 10.9067 11.2935 10.9627 11.4298C11.0188 11.5661 11.1014 11.6899 11.2056 11.7941C11.3099 11.8983 11.4338 11.9807 11.5702 12.0366C11.7065 12.0926 11.8526 12.1209 12 12.12C12.297 12.12 12.582 12.002 12.793 11.793L17.051 7.53299C17.3529 7.23245 17.5922 6.87507 17.7551 6.48149C17.9179 6.08791 18.0012 5.66594 18 5.23999C18 4.37399 17.663 3.55899 17.051 2.94699C16.4422 2.34012 15.6176 1.99935 14.758 1.99935C13.8984 1.99935 13.0738 2.34012 12.465 2.94699L2.95002 12.465C2.64778 12.7657 2.4082 13.1234 2.24513 13.5173C2.08206 13.9113 1.99875 14.3336 2.00002 14.76C2.00002 15.626 2.33802 16.44 2.95002 17.053C3.55883 17.6599 4.3834 18.0006 5.24302 18.0006C6.10264 18.0006 6.9272 17.6599 7.53602 17.053L9.29302 15.295C9.38526 15.1995 9.49561 15.1233 9.61761 15.0709C9.73961 15.0185 9.87084 14.9909 10.0036 14.9897C10.1364 14.9886 10.2681 15.0139 10.391 15.0642C10.5139 15.1144 10.6255 15.1887 10.7194 15.2826C10.8133 15.3765 10.8876 15.4881 10.9378 15.611C10.9881 15.7339 11.0134 15.8656 11.0123 15.9984C11.0111 16.1312 10.9835 16.2624 10.9311 16.3844C10.8787 16.5064 10.8025 16.6167 10.707 16.709L8.95002 18.467C8.46321 18.9536 7.88523 19.3395 7.24915 19.6026C6.61306 19.8656 5.93135 20.0007 5.24302 20Z" fill="#F2F0FE"/>
</svg>
